<svg fill="#fff" xmlns="http://www.w3.org/2000/svg" height="48" viewBox="0 -960 960 960" width="48"><path d="M480.022-492.616q-57.464 0-94.319-36.834-36.856-36.833-36.856-94.489 0-57.656 36.834-94.319 36.833-36.664 94.297-36.664t94.319 36.641q36.856 36.641 36.856 94.298 0 57.656-36.834 94.511-36.833 36.856-94.297 36.856ZM182.771-191.694v-74.076q0-32.211 16.919-55.706 16.92-23.495 44.062-36.118 62.801-27.616 120.744-41.953 57.942-14.337 115.498-14.337 57.556 0 115.242 14.384 57.686 14.385 120.352 42.326 28.028 12.428 44.835 35.883 16.806 23.456 16.806 55.763v73.834H182.771Zm43.845-43.845h506.768v-30.054q0-15.982-10.134-30.349-10.135-14.366-25.366-22.712-59.242-28.385-111.085-39.885-51.843-11.5-106.693-11.5-55.2 0-107.557 11.5-52.356 11.5-110.356 39.885-15.923 8.346-25.75 22.823t-9.827 30.299v29.993ZM480-536.461q37.461 0 62.384-24.923 24.923-24.923 24.923-62.385 0-37.461-24.923-62.384-24.923-24.923-62.384-24.923t-62.384 24.923q-24.923 24.923-24.923 62.384 0 37.462 24.923 62.385 24.923 24.923 62.384 24.923Zm0-87.308Zm0 388.23Z"/></svg>