<svg fill="#fff" xmlns="http://www.w3.org/2000/svg" height="48" viewBox="0 -960 960 960" width="48"><path d="M789.077-140.501 530.872-398.809q-29.451 26.915-69.405 40.9t-81.347 13.985q-101.241 0-171.122-69.884-69.882-69.885-69.882-169.461 0-99.577 69.507-169.538 69.506-69.961 169.681-69.961 100.174 0 170.108 69.921 69.933 69.921 69.933 169.56 0 41.672-14.577 81.325-14.577 39.654-41.307 71.81l258.923 256.959-32.307 32.692ZM379.346-387.769q81.455 0 138.305-56.793Q574.5-501.355 574.5-583.428q0-82.072-56.849-138.784-56.85-56.711-138.651-56.711-82.314 0-139.176 56.793-56.862 56.793-56.862 138.865 0 82.073 56.919 138.784 56.92 56.712 139.465 56.712Z"/></svg>