<svg fill="#fff" xmlns="http://www.w3.org/2000/svg" height="24" viewBox="0 -960 960 960" width="24"><path d="M539.846-136.615q-10.914 10.846-26.418 10.846-15.505 0-26.351-10.846L138.839-485.48q-5.996-5.772-9.341-12.877-3.344-7.105-3.344-15.028v-283.538q0-14.808 11.057-25.866 11.058-11.057 25.866-11.057h283.538q7.273 0 14.224 2.801 6.95 2.801 12.143 7.718l348.864 348.596q11.616 11.616 12 27.673.385 16.058-10.461 26.904L539.846-136.615Zm-25.921-26.462 283.267-283.538-350.049-350.308H163.077v283.719l350.848 350.127ZM262.063-660q15.956 0 27.197-11.082 11.24-11.082 11.24-26.913 0-15.832-11.102-27.072-11.102-11.241-26.961-11.241-16.149 0-27.197 11.082-11.048 11.082-11.048 26.914 0 15.831 10.958 27.072Q246.107-660 262.063-660Zm-98.986-136.923Z"/></svg>